<svg xmlns="http://www.w3.org/2000/svg" width="65.812" height="58" viewBox="0 0 65.812035 58.000001"><g fill="#a29d86" stroke="#ccc" stroke-width=".214" stroke-linejoin="bevel"><path d="M18.93 18.826l9.323 3.394v10.957l-9.323-3.394z" style="isolation:auto;mix-blend-mode:normal" color="#000" overflow="visible" fill="#e9e9ff"/><path d="M9.47 22.27v10.957l9.46-3.444V18.826z" style="isolation:auto;mix-blend-mode:normal" color="#000" overflow="visible" fill="#353564"/><path d="M9.47 33.227l9.322 3.393 9.46-3.443-9.322-3.394z" style="isolation:auto;mix-blend-mode:normal" color="#000" overflow="visible" fill="#afafde"/><path d="M9.47 22.27l9.322 3.393 9.46-3.443-9.322-3.394z" fill="#f7f7f4"/><path d="M18.792 25.663V36.62l9.46-3.443V22.22z" fill="#fff"/><path d="M9.47 22.27l9.322 3.393V36.62L9.47 33.227z" fill="#efeeea"/><path style="isolation:auto;mix-blend-mode:normal" d="M28.293 11.166l9.323 3.393v10.957l-9.323-3.393z" color="#000" overflow="visible" fill="#e9e9ff"/><path style="isolation:auto;mix-blend-mode:normal" d="M18.833 14.609v10.957l9.46-3.443V11.166z" color="#000" overflow="visible" fill="#353564"/><path style="isolation:auto;mix-blend-mode:normal" d="M18.833 25.566l9.322 3.393 9.461-3.443-9.323-3.393z" color="#000" overflow="visible" fill="#afafde"/><path d="M18.833 14.609l9.322 3.393 9.461-3.443-9.323-3.393z" fill="#f7f7f4"/><path d="M28.155 18.002V28.96l9.461-3.443V14.559z" fill="#fff"/><path d="M18.833 14.609l9.322 3.393V28.96l-9.322-3.393z" fill="#efeeea"/><path d="M9.567 33.297l9.322 3.393v10.957l-9.322-3.393z" style="isolation:auto;mix-blend-mode:normal" color="#000" overflow="visible" fill="#e9e9ff"/><path d="M.106 36.74v10.957l9.46-3.443V33.297z" style="isolation:auto;mix-blend-mode:normal" color="#000" overflow="visible" fill="#353564"/><path d="M.106 47.697L9.43 51.09l9.46-3.443-9.322-3.393z" style="isolation:auto;mix-blend-mode:normal" color="#000" overflow="visible" fill="#afafde"/><path d="M.106 36.74l9.323 3.393 9.46-3.443-9.322-3.393z" fill="#f7f7f4"/><path d="M9.429 40.133V51.09l9.46-3.443V36.69z" fill="#fff"/><path d="M.106 36.74l9.323 3.393V51.09L.106 47.697z" fill="#efeeea"/></g><g fill="#a29d86" stroke="#ccc" stroke-width=".214" stroke-linejoin="bevel"><path style="isolation:auto;mix-blend-mode:normal" d="M18.93 36.702l9.323 3.393v10.957l-9.323-3.393z" color="#000" overflow="visible" fill="#e9e9ff"/><path style="isolation:auto;mix-blend-mode:normal" d="M9.47 40.145v10.957l9.46-3.443V36.702z" color="#000" overflow="visible" fill="#353564"/><path style="isolation:auto;mix-blend-mode:normal" d="M9.47 51.102l9.322 3.393 9.46-3.443-9.322-3.393z" color="#000" overflow="visible" fill="#afafde"/><path d="M9.47 40.145l9.322 3.393 9.46-3.443-9.322-3.393z" fill="#f7f7f4"/><path d="M18.792 43.538v10.957l9.46-3.443V40.095z" fill="#fff"/><path d="M9.47 40.145l9.322 3.393v10.957L9.47 51.102z" fill="#efeeea"/></g><g fill="#a29d86" stroke="#ccc" stroke-width=".214" stroke-linejoin="bevel"><path d="M18.93 25.636l9.323 3.393v10.957l-9.323-3.393z" style="isolation:auto;mix-blend-mode:normal" color="#000" overflow="visible" fill="#e9e9ff"/><path d="M9.47 29.08v10.956l9.46-3.443V25.636z" style="isolation:auto;mix-blend-mode:normal" color="#000" overflow="visible" fill="#353564"/><path d="M9.47 40.036l9.322 3.394 9.46-3.444-9.322-3.393z" style="isolation:auto;mix-blend-mode:normal" color="#000" overflow="visible" fill="#afafde"/><path d="M9.47 29.08l9.322 3.393 9.46-3.444-9.322-3.393z" fill="#f7f7f4"/><path d="M18.792 32.473V43.43l9.46-3.444V29.03z" fill="#fff"/><path d="M9.47 29.08l9.322 3.393V43.43L9.47 40.036z" fill="#efeeea"/></g><g fill="#a29d86" stroke="#ccc" stroke-width=".214" stroke-linejoin="bevel"><path style="isolation:auto;mix-blend-mode:normal" d="M56.383 29.892l9.323 3.393v10.957l-9.323-3.393z" color="#000" overflow="visible" fill="#e9e9ff"/><path style="isolation:auto;mix-blend-mode:normal" d="M46.923 33.335v10.957l9.46-3.443V29.892z" color="#000" overflow="visible" fill="#353564"/><path style="isolation:auto;mix-blend-mode:normal" d="M46.923 44.292l9.322 3.394 9.46-3.444-9.322-3.393z" color="#000" overflow="visible" fill="#afafde"/><path d="M46.923 33.335l9.322 3.394 9.46-3.444-9.322-3.393z" fill="#f7f7f4"/><path d="M56.245 36.729v10.957l9.46-3.444V33.285z" fill="#fff"/><path d="M46.923 33.335l9.322 3.394v10.957l-9.322-3.394z" fill="#efeeea"/></g><g transform="translate(-1683.66 -513.275) scale(.65177)"><g fill="#a29d86" stroke="#ccc" stroke-width=".328" stroke-linejoin="bevel"><path style="isolation:auto;mix-blend-mode:normal" d="M2655.349 838.594l14.303 5.206v16.811l-14.303-5.206z" color="#000" overflow="visible" fill="#e9e9ff"/><path style="isolation:auto;mix-blend-mode:normal" d="M2640.834 843.877v16.811l14.515-5.283v-16.81z" color="#000" overflow="visible" fill="#353564"/><path style="isolation:auto;mix-blend-mode:normal" d="M2640.834 860.688l14.303 5.206 14.515-5.283-14.303-5.206z" color="#000" overflow="visible" fill="#afafde"/><path d="M2640.834 843.877l14.303 5.206 14.515-5.283-14.303-5.206z" fill="#f7f7f4"/><path d="M2655.137 849.083v16.811l14.515-5.283v-16.81z" fill="#ffd242"/><path d="M2640.834 843.877l14.303 5.206v16.811l-14.303-5.206z" fill="#efeeea"/></g><circle transform="skewY(-20) scale(.9397 1)" cy="1823.899" cx="2835.218" r="2.967" fill="#fff"/></g><g fill="#a29d86" stroke="#ccc" stroke-width=".214" stroke-linejoin="bevel"><path d="M37.657 36.702l9.322 3.393v10.957l-9.322-3.393z" style="isolation:auto;mix-blend-mode:normal" color="#000" overflow="visible" fill="#e9e9ff"/><path d="M28.196 40.145v10.957l9.46-3.443V36.702z" style="isolation:auto;mix-blend-mode:normal" color="#000" overflow="visible" fill="#353564"/><path d="M28.196 51.102l9.323 3.393 9.46-3.443-9.322-3.393z" style="isolation:auto;mix-blend-mode:normal" color="#000" overflow="visible" fill="#afafde"/><path d="M28.196 40.145l9.323 3.393 9.46-3.443-9.322-3.393z" fill="#f7f7f4"/><path d="M37.519 43.538v10.957l9.46-3.443V40.095z" fill="#ffd242"/><path d="M28.196 40.145l9.323 3.393v10.957l-9.323-3.393z" fill="#efeeea"/></g><g fill="#a29d86" stroke="#ccc" stroke-width=".214" stroke-linejoin="bevel"><path style="isolation:auto;mix-blend-mode:normal" d="M28.293 40.107l9.323 3.393v10.957l-9.323-3.393z" color="#000" overflow="visible" fill="#e9e9ff"/><path style="isolation:auto;mix-blend-mode:normal" d="M18.833 43.55v10.957l9.46-3.443V40.107z" color="#000" overflow="visible" fill="#353564"/><path style="isolation:auto;mix-blend-mode:normal" d="M18.833 54.507l9.322 3.393 9.46-3.443-9.322-3.393z" color="#000" overflow="visible" fill="#afafde"/><path d="M18.833 43.55l9.322 3.393 9.46-3.443-9.322-3.393z" fill="#f7f7f4"/><path d="M28.155 46.943V57.9l9.46-3.443V43.5z" fill="#fff"/><path d="M18.833 43.55l9.322 3.393V57.9l-9.322-3.393z" fill="#efeeea"/></g><g fill="#a29d86" stroke="#ccc" stroke-width=".214" stroke-linejoin="bevel"><path d="M56.383 18.826l9.323 3.394v10.957l-9.323-3.394z" style="isolation:auto;mix-blend-mode:normal" color="#000" overflow="visible" fill="#e9e9ff"/><path d="M46.923 22.27v10.957l9.46-3.444V18.826z" style="isolation:auto;mix-blend-mode:normal" color="#000" overflow="visible" fill="#353564"/><path d="M46.923 33.227l9.322 3.393 9.46-3.443-9.322-3.394z" style="isolation:auto;mix-blend-mode:normal" color="#000" overflow="visible" fill="#afafde"/><path d="M46.923 22.27l9.322 3.393 9.46-3.443-9.322-3.394z" fill="#f7f7f4"/><path d="M56.245 25.663V36.62l9.46-3.443V22.22z" fill="#ffd242"/><path d="M46.923 22.27l9.322 3.393V36.62l-9.322-3.393z" fill="#efeeea"/></g><g fill="#a29d86" stroke="#ccc" stroke-width=".214" stroke-linejoin="bevel"><path style="isolation:auto;mix-blend-mode:normal" d="M56.383 7.76l9.323 3.394V22.11l-9.323-3.393z" color="#000" overflow="visible" fill="#e9e9ff"/><path style="isolation:auto;mix-blend-mode:normal" d="M46.923 11.204v10.957l9.46-3.443V7.76z" color="#000" overflow="visible" fill="#353564"/><path style="isolation:auto;mix-blend-mode:normal" d="M46.923 22.161l9.322 3.393 9.46-3.443-9.322-3.393z" color="#000" overflow="visible" fill="#afafde"/><path d="M46.923 11.204l9.322 3.393 9.46-3.443-9.322-3.393z" fill="#ffc91d"/><path d="M56.245 14.597v10.957l9.46-3.443V11.154z" fill="#ffd242"/><path d="M46.923 11.204l9.322 3.393v10.957l-9.322-3.393z" fill="#efeeea"/></g><g fill="#a29d86" stroke="#ccc" stroke-width=".214" stroke-linejoin="bevel"><path style="isolation:auto;mix-blend-mode:normal" d="M47.02 22.231l9.322 3.393v10.957l-9.322-3.393z" color="#000" overflow="visible" fill="#e9e9ff"/><path style="isolation:auto;mix-blend-mode:normal" d="M37.56 25.675v10.957l9.46-3.444V22.231z" color="#000" overflow="visible" fill="#353564"/><path style="isolation:auto;mix-blend-mode:normal" d="M37.56 36.632l9.322 3.393 9.46-3.444-9.322-3.393z" color="#000" overflow="visible" fill="#afafde"/><path d="M37.56 25.675l9.322 3.393 9.46-3.444-9.322-3.393z" fill="#f7f7f4"/><path d="M46.882 29.068v10.957l9.46-3.444V25.624z" fill="#ffd242"/><path d="M37.56 25.675l9.322 3.393v10.957l-9.323-3.393z" fill="#efeeea"/></g><g fill="#a29d86" stroke="#ccc" stroke-width=".214" stroke-linejoin="bevel"><path d="M47.02 11.166l9.322 3.393v10.957l-9.322-3.393z" style="isolation:auto;mix-blend-mode:normal" color="#000" overflow="visible" fill="#e9e9ff"/><path d="M37.56 14.609v10.957l9.46-3.443V11.166z" style="isolation:auto;mix-blend-mode:normal" color="#000" overflow="visible" fill="#353564"/><path d="M37.56 25.566l9.322 3.393 9.46-3.443-9.322-3.393z" style="isolation:auto;mix-blend-mode:normal" color="#000" overflow="visible" fill="#afafde"/><path d="M37.56 14.609l9.322 3.393 9.46-3.443-9.322-3.393z" fill="#f7f7f4"/><path d="M46.882 18.002V28.96l9.46-3.443V14.559z" fill="#3775a9"/><path d="M37.56 14.609l9.322 3.393V28.96l-9.323-3.393z" fill="#efeeea"/></g><g fill="#a29d86" stroke="#ccc" stroke-width=".214" stroke-linejoin="bevel"><path style="isolation:auto;mix-blend-mode:normal" d="M47.02.1l9.322 3.393V14.45l-9.322-3.393z" color="#000" overflow="visible" fill="#e9e9ff"/><path style="isolation:auto;mix-blend-mode:normal" d="M37.56 3.543V14.5l9.46-3.443V.1z" color="#000" overflow="visible" fill="#353564"/><path style="isolation:auto;mix-blend-mode:normal" d="M37.56 14.5l9.322 3.393 9.46-3.443-9.322-3.393z" color="#000" overflow="visible" fill="#afafde"/><path d="M37.56 3.543l9.322 3.393 9.46-3.443L47.02.1z" fill="#2f6491"/><path d="M46.882 6.936v10.957l9.46-3.443V3.493z" fill="#3775a9"/><path d="M37.56 3.543l9.322 3.393v10.957L37.559 14.5z" fill="#efeeea"/></g><g fill="#a29d86" stroke="#ccc" stroke-width=".214" stroke-linejoin="bevel"><path d="M37.657 25.636l9.322 3.393v10.957l-9.322-3.393z" style="isolation:auto;mix-blend-mode:normal" color="#000" overflow="visible" fill="#e9e9ff"/><path d="M28.196 29.08v10.956l9.46-3.443V25.636z" style="isolation:auto;mix-blend-mode:normal" color="#000" overflow="visible" fill="#353564"/><path d="M28.196 40.036l9.323 3.394 9.46-3.444-9.322-3.393z" style="isolation:auto;mix-blend-mode:normal" color="#000" overflow="visible" fill="#afafde"/><path d="M28.196 29.08l9.323 3.393 9.46-3.444-9.322-3.393z" fill="#f7f7f4"/><path d="M37.519 32.473V43.43l9.46-3.444V29.03z" fill="#ffd242"/><path d="M28.196 29.08l9.323 3.393V43.43l-9.323-3.394z" fill="#efeeea"/></g><g fill="#a29d86" stroke="#ccc" stroke-width=".214" stroke-linejoin="bevel"><path style="isolation:auto;mix-blend-mode:normal" d="M37.657 14.57l9.322 3.394V28.92l-9.322-3.394z" color="#000" overflow="visible" fill="#e9e9ff"/><path style="isolation:auto;mix-blend-mode:normal" d="M28.196 18.014V28.97l9.46-3.444V14.57z" color="#000" overflow="visible" fill="#353564"/><path style="isolation:auto;mix-blend-mode:normal" d="M28.196 28.97l9.323 3.394 9.46-3.443-9.322-3.394z" color="#000" overflow="visible" fill="#afafde"/><path d="M28.196 18.014l9.323 3.393 9.46-3.443-9.322-3.394z" fill="#f7f7f4"/><path d="M37.519 21.407v10.957l9.46-3.443V17.964z" fill="#3775a9"/><path d="M28.196 18.014l9.323 3.393v10.957l-9.323-3.393z" fill="#efeeea"/></g><g fill="#a29d86" stroke="#ccc" stroke-width=".214" stroke-linejoin="bevel"><path style="isolation:auto;mix-blend-mode:normal" d="M28.293 29.04l9.323 3.394v10.957l-9.323-3.393z" color="#000" overflow="visible" fill="#e9e9ff"/><path style="isolation:auto;mix-blend-mode:normal" d="M18.833 32.484v10.957l9.46-3.443V29.04z" color="#000" overflow="visible" fill="#353564"/><path style="isolation:auto;mix-blend-mode:normal" d="M18.833 43.441l9.322 3.393 9.46-3.443-9.322-3.393z" color="#000" overflow="visible" fill="#afafde"/><path d="M18.833 32.484l9.322 3.393 9.46-3.443-9.322-3.393z" fill="#f7f7f4"/><path d="M28.155 35.877v10.957l9.46-3.443V32.434z" fill="#3775a9"/><path d="M18.833 32.484l9.322 3.393v10.957l-9.322-3.393z" fill="#2f6491"/></g><g fill="#a29d86" stroke="#ccc" stroke-width=".214" stroke-linejoin="bevel"><path d="M28.293 17.975l9.323 3.393v10.957l-9.323-3.393z" style="isolation:auto;mix-blend-mode:normal" color="#000" overflow="visible" fill="#e9e9ff"/><path d="M18.833 21.419v10.957l9.46-3.444V17.975z" style="isolation:auto;mix-blend-mode:normal" color="#000" overflow="visible" fill="#353564"/><path d="M18.833 32.376l9.322 3.393 9.46-3.444-9.322-3.393z" style="isolation:auto;mix-blend-mode:normal" color="#000" overflow="visible" fill="#afafde"/><path d="M18.833 21.419l9.322 3.393 9.46-3.444-9.322-3.393z" fill="#2f6491"/><path d="M28.155 24.812v10.957l9.46-3.444V21.368z" fill="#3775a9"/><path d="M18.833 21.419l9.322 3.393v10.957l-9.322-3.393z" fill="#2f6491"/></g><g transform="translate(-1683.66 -513.275) scale(.65177)"><g fill="#a29d86" stroke="#ccc" stroke-width=".328" stroke-linejoin="bevel"><path style="isolation:auto;mix-blend-mode:normal" d="M2640.983 792.885l14.304 5.206v16.811l-14.304-5.206z" color="#000" overflow="visible" fill="#e9e9ff"/><path style="isolation:auto;mix-blend-mode:normal" d="M2626.468 798.168v16.811l14.515-5.283v-16.811z" color="#000" overflow="visible" fill="#353564"/><path style="isolation:auto;mix-blend-mode:normal" d="M2626.468 814.979l14.304 5.206 14.515-5.283-14.304-5.206z" color="#000" overflow="visible" fill="#afafde"/><path d="M2626.468 798.168l14.304 5.206 14.515-5.283-14.304-5.206z" fill="#2f6491"/><path d="M2640.772 803.374v16.811l14.515-5.283v-16.811z" fill="#3775a9"/><path d="M2626.468 798.168l14.304 5.206v16.811l-14.304-5.206z" fill="#2f6491"/></g><circle transform="skewY(-20) scale(.9397 1)" cy="1772.922" cx="2816.017" r="2.967" fill="#fff"/></g></svg>