<svg width="1082pt" height="1669pt"
 viewBox="0.00 0.00 1082.00 1669.20" xmlns="http://www.w3.org/2000/svg" xmlns:xlink="http://www.w3.org/1999/xlink">
<g id="graph0" class="graph" transform="scale(1 1) rotate(0) translate(4 1665.2)">
<title>MkDocs</title>
<g id="a_graph0"><a xlink:title=" ">
</a>
</g>
<g id="clust1" class="cluster">
<title>cluster_on_config</title>
<g id="a_clust1"><a xlink:href="#on_config" xlink:title=" ">
<polygon fill="#ffff33" fill-opacity="0.533333" stroke="black" points="505,-1541.2 505,-1617.2 585,-1617.2 585,-1541.2 505,-1541.2"/>
<text text-anchor="middle" x="545" y="-1602" font-family="inherit" font-size="14.00">on_config</text>
</a>
</g>
</g>
<g id="clust2" class="cluster">
<title>cluster_on_pre_build</title>
<g id="a_clust2"><a xlink:href="#on_pre_build" xlink:title=" ">
<polygon fill="#ffff33" fill-opacity="0.533333" stroke="black" points="436,-1457.2 436,-1533.2 536,-1533.2 536,-1457.2 436,-1457.2"/>
<text text-anchor="middle" x="486" y="-1518" font-family="inherit" font-size="14.00">on_pre_build</text>
</a>
</g>
</g>
<g id="clust3" class="cluster">
<title>cluster_on_files</title>
<g id="a_clust3"><a xlink:href="#on_files" xlink:title=" ">
<polygon fill="#ffff33" fill-opacity="0.533333" stroke="black" points="501,-1373.2 501,-1449.2 617,-1449.2 617,-1373.2 501,-1373.2"/>
<text text-anchor="middle" x="559" y="-1434" font-family="inherit" font-size="14.00">on_files</text>
</a>
</g>
</g>
<g id="clust4" class="cluster">
<title>cluster_on_nav</title>
<g id="a_clust4"><a xlink:href="#on_nav" xlink:title=" ">
<polygon fill="#ffff33" fill-opacity="0.533333" stroke="black" points="456,-1225.2 456,-1301.2 610,-1301.2 610,-1225.2 456,-1225.2"/>
<text text-anchor="middle" x="533" y="-1286" font-family="inherit" font-size="14.00">on_nav</text>
</a>
</g>
</g>
<g id="clust5" class="cluster">
<title>cluster_populate_page</title>
<g id="a_clust5"><a xlink:title=" ">
<polygon fill="#ffffff" fill-opacity="0.333333" stroke="black" points="220,-754.6 220,-1185.6 482,-1185.6 482,-754.6 220,-754.6"/>
<text text-anchor="middle" x="351" y="-1170.4" font-family="inherit" font-size="14.00">populate_page</text>
</a>
</g>
</g>
<g id="clust6" class="cluster">
<title>cluster_on_pre_page</title>
<g id="a_clust6"><a xlink:href="#on_pre_page" xlink:title=" ">
<polygon fill="#ffff33" fill-opacity="0.533333" stroke="black" points="228,-1078.6 228,-1154.6 392,-1154.6 392,-1078.6 228,-1078.6"/>
<text text-anchor="middle" x="310" y="-1139.4" font-family="inherit" font-size="14.00">on_pre_page</text>
</a>
</g>
</g>
<g id="clust7" class="cluster">
<title>cluster_on_read_source</title>
<g id="a_clust7"><a xlink:href="#on_read_source" xlink:title=" ">
<polygon fill="#ffff33" fill-opacity="0.533333" stroke="black" points="228,-994.6 228,-1070.6 348,-1070.6 348,-994.6 228,-994.6"/>
<text text-anchor="middle" x="288" y="-1055.4" font-family="inherit" font-size="14.00">on_read_source</text>
</a>
</g>
</g>
<g id="clust8" class="cluster">
<title>cluster_on_page_markdown</title>
<g id="a_clust8"><a xlink:href="#on_page_markdown" xlink:title=" ">
<polygon fill="#ffff33" fill-opacity="0.533333" stroke="black" points="228,-910.6 228,-986.6 474,-986.6 474,-910.6 228,-910.6"/>
<text text-anchor="middle" x="351" y="-971.4" font-family="inherit" font-size="14.00">on_page_markdown</text>
</a>
</g>
</g>
<g id="clust9" class="cluster">
<title>cluster_on_page_content</title>
<g id="a_clust9"><a xlink:href="#on_page_content" xlink:title=" ">
<polygon fill="#ffff33" fill-opacity="0.533333" stroke="black" points="255,-762.6 255,-838.6 465,-838.6 465,-762.6 255,-762.6"/>
<text text-anchor="middle" x="360" y="-823.4" font-family="inherit" font-size="14.00">on_page_content</text>
</a>
</g>
</g>
<g id="clust12" class="cluster">
<title>cluster_on_env</title>
<g id="a_clust12"><a xlink:href="#on_env" xlink:title=" ">
<polygon fill="#ffff33" fill-opacity="0.533333" stroke="black" points="283,-647 283,-723 437,-723 437,-647 283,-647"/>
<text text-anchor="middle" x="360" y="-707.8" font-family="inherit" font-size="14.00">on_env</text>
</a>
</g>
</g>
<g id="clust10" class="cluster">
<title>cluster_populate_page_2</title>
<g id="a_clust10"><a xlink:title=" ">
<polygon fill="#ffffff" fill-opacity="0.333333" stroke="black" points="41,-763.1 41,-838.1 153,-838.1 153,-763.1 41,-763.1"/>
<text text-anchor="middle" x="97" y="-822.9" font-family="inherit" font-size="14.00">populate_page</text>
</a>
</g>
</g>
<g id="clust11" class="cluster">
<title>cluster_populate_page_3</title>
<g id="a_clust11"><a xlink:title=" ">
<polygon fill="#ffffff" fill-opacity="0.333333" stroke="black" points="100,-1079.1 100,-1154.1 212,-1154.1 212,-1079.1 100,-1079.1"/>
<text text-anchor="middle" x="156" y="-1138.9" font-family="inherit" font-size="14.00">populate_page</text>
</a>
</g>
</g>
<g id="clust13" class="cluster">
<title>cluster_build_page</title>
<g id="a_clust13"><a xlink:title=" ">
<polygon fill="#ffffff" fill-opacity="0.333333" stroke="black" points="116,-176 116,-555.5 498,-555.5 498,-176 116,-176"/>
<text text-anchor="middle" x="307" y="-540.3" font-family="inherit" font-size="14.00">build_page</text>
</a>
</g>
</g>
<g id="clust14" class="cluster">
<title>cluster_on_page_context</title>
<g id="a_clust14"><a xlink:href="#on_page_context" xlink:title=" ">
<polygon fill="#ffff33" fill-opacity="0.533333" stroke="black" points="266,-396 266,-472 490,-472 490,-396 266,-396"/>
<text text-anchor="middle" x="378" y="-456.8" font-family="inherit" font-size="14.00">on_page_context</text>
</a>
</g>
</g>
<g id="clust15" class="cluster">
<title>cluster_on_post_page</title>
<g id="a_clust15"><a xlink:href="#on_post_page" xlink:title=" ">
<polygon fill="#ffff33" fill-opacity="0.533333" stroke="black" points="288,-248 288,-324 470,-324 470,-248 288,-248"/>
<text text-anchor="middle" x="379" y="-308.8" font-family="inherit" font-size="14.00">on_post_page</text>
</a>
</g>
</g>
<g id="clust16" class="cluster">
<title>cluster_build_page_2</title>
<g id="a_clust16"><a xlink:title=" ">
<polygon fill="#ffffff" fill-opacity="0.333333" stroke="black" points="21,-480.5 21,-555.5 108,-555.5 108,-480.5 21,-480.5"/>
<text text-anchor="middle" x="64.5" y="-540.3" font-family="inherit" font-size="14.00">build_page</text>
</a>
</g>
</g>
<g id="clust17" class="cluster">
<title>cluster_build_page_3</title>
<g id="a_clust17"><a xlink:title=" ">
<polygon fill="#ffffff" fill-opacity="0.333333" stroke="black" points="8,-396.5 8,-471.5 95,-471.5 95,-396.5 8,-396.5"/>
<text text-anchor="middle" x="51.5" y="-456.3" font-family="inherit" font-size="14.00">build_page</text>
</a>
</g>
</g>
<g id="clust18" class="cluster">
<title>cluster_build_template</title>
<g id="a_clust18"><a xlink:title=" ">
<polygon fill="#ffffff" fill-opacity="0.333333" stroke="black" points="506,-176 506,-639 916,-639 916,-176 506,-176"/>
<text text-anchor="middle" x="711" y="-623.8" font-family="inherit" font-size="14.00">build_template</text>
</a>
</g>
</g>
<g id="clust19" class="cluster">
<title>cluster_on_pre_template</title>
<g id="a_clust19"><a xlink:href="#on_pre_template" xlink:title=" ">
<polygon fill="#ffff33" fill-opacity="0.533333" stroke="black" points="646,-480 646,-556 908,-556 908,-480 646,-480"/>
<text text-anchor="middle" x="777" y="-540.8" font-family="inherit" font-size="14.00">on_pre_template</text>
</a>
</g>
</g>
<g id="clust20" class="cluster">
<title>cluster_on_template_context</title>
<g id="a_clust20"><a xlink:href="#on_template_context" xlink:title=" ">
<polygon fill="#ffff33" fill-opacity="0.533333" stroke="black" points="532,-396 532,-472 786,-472 786,-396 532,-396"/>
<text text-anchor="middle" x="659" y="-456.8" font-family="inherit" font-size="14.00">on_template_context</text>
</a>
</g>
</g>
<g id="clust21" class="cluster">
<title>cluster_on_post_template</title>
<g id="a_clust21"><a xlink:href="#on_post_template" xlink:title=" ">
<polygon fill="#ffff33" fill-opacity="0.533333" stroke="black" points="533,-248 533,-324 783,-324 783,-248 533,-248"/>
<text text-anchor="middle" x="658" y="-308.8" font-family="inherit" font-size="14.00">on_post_template</text>
</a>
</g>
</g>
<g id="clust22" class="cluster">
<title>cluster_build_template_2</title>
<g id="a_clust22"><a xlink:title=" ">
<polygon fill="#ffffff" fill-opacity="0.333333" stroke="black" points="953,-564 953,-639 1066,-639 1066,-564 953,-564"/>
<text text-anchor="middle" x="1009.5" y="-623.8" font-family="inherit" font-size="14.00">build_template</text>
</a>
</g>
</g>
<g id="clust23" class="cluster">
<title>cluster_build_template_3</title>
<g id="a_clust23"><a xlink:title=" ">
<polygon fill="#ffffff" fill-opacity="0.333333" stroke="black" points="938,-480.5 938,-555.5 1051,-555.5 1051,-480.5 938,-480.5"/>
<text text-anchor="middle" x="994.5" y="-540.3" font-family="inherit" font-size="14.00">build_template</text>
</a>
</g>
</g>
<g id="clust24" class="cluster">
<title>cluster_on_post_build</title>
<g id="a_clust24"><a xlink:href="#on_post_build" xlink:title=" ">
<polygon fill="#ffff33" fill-opacity="0.533333" stroke="black" points="423,-92 423,-168 530,-168 530,-92 423,-92"/>
<text text-anchor="middle" x="476.5" y="-152.8" font-family="inherit" font-size="14.00">on_post_build</text>
</a>
</g>
</g>
<g id="clust25" class="cluster">
<title>cluster_on_serve</title>
<g id="a_clust25"><a xlink:href="#on_serve" xlink:title=" ">
<polygon fill="#ffff33" fill-opacity="0.533333" stroke="black" points="412,-8 412,-84 540,-84 540,-8 412,-8"/>
<text text-anchor="middle" x="476" y="-68.8" font-family="inherit" font-size="14.00">on_serve</text>
</a>
</g>
</g>
<!-- on_config -->
<g id="node1" class="node">
<title>on_config</title>
<g id="a_node1"><a xlink:title=" ">
<polygon fill="#ffffff" fill-opacity="0.333333" stroke="black" points="517,-1549.7 517,-1585.7 573,-1585.7 573,-1549.7 517,-1549.7"/>
<text text-anchor="middle" x="545" y="-1564" font-family="inherit" font-size="14.00">config</text>
</a>
</g>
</g>
<!-- on_pre_build -->
<g id="node2" class="node">
<title>on_pre_build</title>
<g id="a_node2"><a xlink:title=" ">
<polygon fill="#ffffff" fill-opacity="0.333333" stroke="black" points="471,-1465.7 471,-1501.7 527,-1501.7 527,-1465.7 471,-1465.7"/>
<text text-anchor="middle" x="499" y="-1480" font-family="inherit" font-size="14.00">config</text>
</a>
</g>
</g>
<!-- on_config&#45;&gt;on_pre_build -->
<g id="edge2" class="edge">
<title>on_config:s&#45;&gt;on_pre_build:n</title>
<g id="a_edge2"><a xlink:title=" ">
<path fill="none" stroke="black" d="M545,-1548.7C545,-1537.18 515.79,-1523.99 503.92,-1511.79"/>
<polygon fill="black" stroke="black" points="506.84,-1509.83 499,-1502.7 500.68,-1513.16 506.84,-1509.83"/>
</a>
</g>
</g>
<!-- get_files -->
<g id="node6" class="node">
<title>get_files</title>
<g id="a_node6"><a xlink:title=" ">
<ellipse fill="#77ff77" fill-opacity="0.533333" stroke="black" cx="591" cy="-1483.7" rx="46.29" ry="18"/>
<text text-anchor="middle" x="591" y="-1480" font-family="inherit" font-size="14.00">get_files</text>
</a>
</g>
</g>
<!-- on_config&#45;&gt;get_files -->
<g id="edge3" class="edge">
<title>on_config:s&#45;&gt;get_files</title>
<g id="a_edge3"><a xlink:title=" ">
<path fill="none" stroke="black" d="M545,-1548.7C545,-1533.02 554.21,-1518.56 564.39,-1507.37"/>
<polygon fill="black" stroke="black" points="566.96,-1509.74 571.49,-1500.16 561.98,-1504.83 566.96,-1509.74"/>
</a>
</g>
</g>
<!-- on_files -->
<g id="node3" class="node">
<title>on_files</title>
<g id="a_node3"><a xlink:title=" ">
<polygon fill="#ffffff" fill-opacity="0.333333" stroke="black" points="509.5,-1381.7 509.5,-1417.7 608.5,-1417.7 608.5,-1381.7 509.5,-1381.7"/>
<text text-anchor="middle" x="531" y="-1396" font-family="inherit" font-size="14.00">files</text>
<polyline fill="none" stroke="black" points="552.5,-1381.7 552.5,-1417.7 "/>
<text text-anchor="middle" x="580.5" y="-1396" font-family="inherit" font-size="14.00">config</text>
</a>
</g>
</g>
<!-- on_pre_build&#45;&gt;on_files -->
<!-- on_nav -->
<g id="node4" class="node">
<title>on_nav</title>
<g id="a_node4"><a xlink:title=" ">
<polygon fill="#ffffff" fill-opacity="0.333333" stroke="black" points="464.5,-1233.7 464.5,-1269.7 601.5,-1269.7 601.5,-1233.7 464.5,-1233.7"/>
<text text-anchor="middle" x="483.5" y="-1248" font-family="inherit" font-size="14.00">nav</text>
<polyline fill="none" stroke="black" points="502.5,-1233.7 502.5,-1269.7 "/>
<text text-anchor="middle" x="530.5" y="-1248" font-family="inherit" font-size="14.00">config</text>
<polyline fill="none" stroke="black" points="558.5,-1233.7 558.5,-1269.7 "/>
<text text-anchor="middle" x="580" y="-1248" font-family="inherit" font-size="14.00">files</text>
</a>
</g>
</g>
<!-- on_files&#45;&gt;on_nav -->
<g id="edge7" class="edge">
<title>on_files:s&#45;&gt;on_nav:n</title>
<g id="a_edge7"><a xlink:title=" ">
<path fill="none" stroke="black" d="M531,-1380.7C531,-1363.21 540.77,-1361.13 548,-1345.2 561.38,-1315.72 576.55,-1308.16 579.49,-1280.8"/>
<polygon fill="black" stroke="black" points="582.99,-1280.86 580,-1270.7 576,-1280.51 582.99,-1280.86"/>
</a>
</g>
</g>
<!-- get_nav -->
<g id="node7" class="node">
<title>get_nav</title>
<g id="a_node7"><a xlink:title=" ">
<ellipse fill="#77ff77" fill-opacity="0.533333" stroke="black" cx="495" cy="-1327.2" rx="43.59" ry="18"/>
<text text-anchor="middle" x="495" y="-1323.5" font-family="inherit" font-size="14.00">get_nav</text>
</a>
</g>
</g>
<!-- on_files&#45;&gt;get_nav -->
<g id="edge5" class="edge">
<title>on_files:s&#45;&gt;get_nav</title>
<g id="a_edge5"><a xlink:title=" ">
<path fill="none" stroke="black" d="M531,-1380.7C531,-1370.09 525.94,-1360.06 519.61,-1351.66"/>
<polygon fill="black" stroke="black" points="522.13,-1349.22 513,-1343.84 516.79,-1353.74 522.13,-1349.22"/>
</a>
</g>
</g>
<!-- render_p -->
<g id="node12" class="node">
<title>render_p</title>
<g id="a_node12"><a xlink:title=" ">
<ellipse fill="#77ff77" fill-opacity="0.533333" stroke="black" cx="361" cy="-864.6" rx="38.19" ry="18"/>
<text text-anchor="middle" x="361" y="-860.9" font-family="inherit" font-size="14.00">render</text>
</a>
</g>
</g>
<!-- on_nav&#45;&gt;render_p -->
<!-- pages_point_a -->
<g id="node13" class="node">
<title>pages_point_a</title>
<g id="a_node13"><a xlink:title=" ">
<ellipse fill="black" stroke="black" cx="260" cy="-1195.4" rx="1.8" ry="1.8"/>
</a>
</g>
</g>
<!-- on_nav&#45;&gt;pages_point_a -->
<g id="edge12" class="edge">
<title>on_nav:s&#45;&gt;pages_point_a</title>
<g id="a_edge12"><a xlink:title=" ">
<path fill="none" stroke="black" d="M580,-1232.7C580,-1198.45 286.91,-1196.51 261.72,-1196.41"/>
</a>
</g>
</g>
<!-- context_inputs_point -->
<g id="node25" class="node">
<title>context_inputs_point</title>
<g id="a_node25"><a xlink:title=" ">
<ellipse fill="black" stroke="black" cx="310" cy="-590" rx="1.8" ry="1.8"/>
</a>
</g>
</g>
<!-- on_nav&#45;&gt;context_inputs_point -->
<g id="edge28" class="edge">
<title>on_nav:s&#45;&gt;context_inputs_point</title>
<g id="a_edge28"><a xlink:title=" ">
<path fill="none" stroke="black" d="M483,-1232.7C483,-1200.17 527.03,-1222.88 547,-1197.2 572.7,-1164.15 571,-1147.97 571,-1106.1 571,-1106.1 571,-1106.1 571,-731.8 571,-668.73 331.95,-597.42 311.4,-591.41"/>
</a>
</g>
</g>
<!-- load_config -->
<g id="node5" class="node">
<title>load_config</title>
<g id="a_node5"><a xlink:title=" ">
<ellipse fill="#77ff77" fill-opacity="0.533333" stroke="black" cx="545" cy="-1643.2" rx="59.29" ry="18"/>
<text text-anchor="middle" x="545" y="-1639.5" font-family="inherit" font-size="14.00">load_config</text>
</a>
</g>
</g>
<!-- load_config&#45;&gt;on_config -->
<g id="edge1" class="edge">
<title>load_config&#45;&gt;on_config:n</title>
<g id="a_edge1"><a xlink:title=" ">
<path fill="none" stroke="black" d="M545,-1625.2C545,-1617.04 545,-1606.9 545,-1596.93"/>
<polygon fill="black" stroke="black" points="548.5,-1596.7 545,-1586.7 541.5,-1596.7 548.5,-1596.7"/>
</a>
</g>
</g>
<!-- get_files&#45;&gt;on_files -->
<g id="edge4" class="edge">
<title>get_files&#45;&gt;on_files:n</title>
<g id="a_edge4"><a xlink:title=" ">
<path fill="none" stroke="black" d="M565.55,-1468.56C551.88,-1459.24 536.92,-1445.67 532.38,-1428.92"/>
<polygon fill="black" stroke="black" points="535.81,-1428.14 531,-1418.7 528.87,-1429.08 535.81,-1428.14"/>
</a>
</g>
</g>
<!-- get_nav&#45;&gt;on_nav -->
<g id="edge6" class="edge">
<title>get_nav&#45;&gt;on_nav:n</title>
<g id="a_edge6"><a xlink:title=" ">
<path fill="none" stroke="black" d="M489.28,-1308.91C486.99,-1300.86 484.64,-1290.88 483.58,-1280.95"/>
<polygon fill="black" stroke="black" points="487.06,-1280.49 483,-1270.7 480.07,-1280.88 487.06,-1280.49"/>
</a>
</g>
</g>
<!-- on_pre_page -->
<g id="node8" class="node">
<title>on_pre_page</title>
<g id="a_node8"><a xlink:title=" ">
<polygon fill="#ffffff" fill-opacity="0.333333" stroke="black" points="236.5,-1087.1 236.5,-1123.1 383.5,-1123.1 383.5,-1087.1 236.5,-1087.1"/>
<text text-anchor="middle" x="260.5" y="-1101.4" font-family="inherit" font-size="14.00">page</text>
<polyline fill="none" stroke="black" points="284.5,-1087.1 284.5,-1123.1 "/>
<text text-anchor="middle" x="312.5" y="-1101.4" font-family="inherit" font-size="14.00">config</text>
<polyline fill="none" stroke="black" points="340.5,-1087.1 340.5,-1123.1 "/>
<text text-anchor="middle" x="362" y="-1101.4" font-family="inherit" font-size="14.00">files</text>
</a>
</g>
</g>
<!-- on_read_source -->
<g id="node9" class="node">
<title>on_read_source</title>
<g id="a_node9"><a xlink:title=" ">
<polygon fill="#ffffff" fill-opacity="0.333333" stroke="black" points="236,-1003.1 236,-1039.1 340,-1039.1 340,-1003.1 236,-1003.1"/>
<text text-anchor="middle" x="260" y="-1017.4" font-family="inherit" font-size="14.00">page</text>
<polyline fill="none" stroke="black" points="284,-1003.1 284,-1039.1 "/>
<text text-anchor="middle" x="312" y="-1017.4" font-family="inherit" font-size="14.00">config</text>
</a>
</g>
</g>
<!-- on_pre_page&#45;&gt;on_read_source -->
<g id="edge8" class="edge">
<title>on_pre_page:s&#45;&gt;on_read_source:n</title>
<g id="a_edge8"><a xlink:title=" ">
<path fill="none" stroke="black" stroke-width="1.5" stroke-dasharray="5,2" d="M260,-1086.1C260,-1069.49 260,-1063 260,-1050.18"/>
<polygon fill="black" stroke="black" stroke-width="1.5" points="263.5,-1050.1 260,-1040.1 256.5,-1050.1 263.5,-1050.1"/>
</a>
</g>
</g>
<!-- on_page_markdown -->
<g id="node10" class="node">
<title>on_page_markdown</title>
<g id="a_node10"><a xlink:title=" ">
<polygon fill="#ffffff" fill-opacity="0.333333" stroke="black" points="235.5,-919.1 235.5,-955.1 466.5,-955.1 466.5,-919.1 235.5,-919.1"/>
<text text-anchor="middle" x="277.5" y="-933.4" font-family="inherit" font-size="14.00">markdown</text>
<polyline fill="none" stroke="black" points="319.5,-919.1 319.5,-955.1 "/>
<text text-anchor="middle" x="343.5" y="-933.4" font-family="inherit" font-size="14.00">page</text>
<polyline fill="none" stroke="black" points="367.5,-919.1 367.5,-955.1 "/>
<text text-anchor="middle" x="395.5" y="-933.4" font-family="inherit" font-size="14.00">config</text>
<polyline fill="none" stroke="black" points="423.5,-919.1 423.5,-955.1 "/>
<text text-anchor="middle" x="445" y="-933.4" font-family="inherit" font-size="14.00">files</text>
</a>
</g>
</g>
<!-- on_read_source&#45;&gt;on_page_markdown -->
<g id="edge9" class="edge">
<title>on_read_source:s&#45;&gt;on_page_markdown:n</title>
<g id="a_edge9"><a xlink:title=" ">
<path fill="none" stroke="black" stroke-width="1.5" stroke-dasharray="5,2" d="M287.48,-994.6C285.76,-982.95 280.3,-977.12 278.02,-966.35"/>
<polygon fill="black" stroke="black" stroke-width="1.5" points="281.47,-965.71 277,-956.1 274.5,-966.4 281.47,-965.71"/>
</a>
</g>
</g>
<!-- on_page_markdown&#45;&gt;render_p -->
<g id="edge10" class="edge">
<title>on_page_markdown:s&#45;&gt;render_p</title>
<g id="a_edge10"><a xlink:title=" ">
<path fill="none" stroke="black" stroke-width="1.5" stroke-dasharray="5,2" d="M277,-918.1C277,-896.87 296.53,-883.91 316.76,-876.17"/>
<polygon fill="black" stroke="black" stroke-width="1.5" points="318.03,-879.44 326.35,-872.88 315.75,-872.82 318.03,-879.44"/>
</a>
</g>
</g>
<!-- on_page_content -->
<g id="node11" class="node">
<title>on_page_content</title>
<g id="a_node11"><a xlink:title=" ">
<polygon fill="#ffffff" fill-opacity="0.333333" stroke="black" points="263,-771.1 263,-807.1 457,-807.1 457,-771.1 263,-771.1"/>
<text text-anchor="middle" x="286.5" y="-785.4" font-family="inherit" font-size="14.00">html</text>
<polyline fill="none" stroke="black" points="310,-771.1 310,-807.1 "/>
<text text-anchor="middle" x="334" y="-785.4" font-family="inherit" font-size="14.00">page</text>
<polyline fill="none" stroke="black" points="358,-771.1 358,-807.1 "/>
<text text-anchor="middle" x="386" y="-785.4" font-family="inherit" font-size="14.00">config</text>
<polyline fill="none" stroke="black" points="414,-771.1 414,-807.1 "/>
<text text-anchor="middle" x="435.5" y="-785.4" font-family="inherit" font-size="14.00">files</text>
</a>
</g>
</g>
<!-- pages_point_b -->
<g id="node15" class="node">
<title>pages_point_b</title>
<g id="a_node15"><a xlink:title=" ">
<ellipse fill="black" stroke="black" cx="185" cy="-732.8" rx="1.8" ry="1.8"/>
</a>
</g>
</g>
<!-- on_page_content&#45;&gt;pages_point_b -->
<g id="edge19" class="edge">
<title>on_page_content:s&#45;&gt;pages_point_b</title>
<g id="a_edge19"><a xlink:title=" ">
<path fill="none" stroke="black" stroke-width="1.5" stroke-dasharray="5,2" d="M286,-770.1C286,-751.3 223.28,-739.59 196.69,-735.47"/>
<polygon fill="black" stroke="black" stroke-width="1.5" points="196.83,-731.95 186.43,-733.98 195.82,-738.88 196.83,-731.95"/>
</a>
</g>
</g>
<!-- on_env -->
<g id="node17" class="node">
<title>on_env</title>
<g id="a_node17"><a xlink:title=" ">
<polygon fill="#ffffff" fill-opacity="0.333333" stroke="black" points="291.5,-655.5 291.5,-691.5 428.5,-691.5 428.5,-655.5 291.5,-655.5"/>
<text text-anchor="middle" x="310.5" y="-669.8" font-family="inherit" font-size="14.00">env</text>
<polyline fill="none" stroke="black" points="329.5,-655.5 329.5,-691.5 "/>
<text text-anchor="middle" x="357.5" y="-669.8" font-family="inherit" font-size="14.00">config</text>
<polyline fill="none" stroke="black" points="385.5,-655.5 385.5,-691.5 "/>
<text text-anchor="middle" x="407" y="-669.8" font-family="inherit" font-size="14.00">files</text>
</a>
</g>
</g>
<!-- on_page_content&#45;&gt;on_env -->
<!-- render_p&#45;&gt;on_page_content -->
<g id="edge11" class="edge">
<title>render_p&#45;&gt;on_page_content:n</title>
<g id="a_edge11"><a xlink:title=" ">
<path fill="none" stroke="black" stroke-width="1.5" stroke-dasharray="5,2" d="M329.63,-854.07C312.29,-846.98 293.15,-835.5 287.59,-818.27"/>
<polygon fill="black" stroke="black" stroke-width="1.5" points="291,-817.44 286,-808.1 284.09,-818.52 291,-817.44"/>
</a>
</g>
</g>
<!-- pages_point_a&#45;&gt;on_pre_page -->
<g id="edge13" class="edge">
<title>pages_point_a&#45;&gt;on_pre_page:n</title>
<g id="a_edge13"><a xlink:title=" ">
<path fill="none" stroke="black" stroke-width="1.5" stroke-dasharray="5,2" d="M260,-1193.41C260,-1187.88 260,-1160.16 260,-1134.26"/>
<polygon fill="black" stroke="black" stroke-width="1.5" points="263.5,-1134.1 260,-1124.1 256.5,-1134.1 263.5,-1134.1"/>
</a>
</g>
</g>
<!-- pages_point_a&#45;&gt;render_p -->
<g id="edge14" class="edge">
<title>pages_point_a&#45;&gt;render_p</title>
<g id="a_edge14"><a xlink:title=" ">
<path fill="none" stroke="black" d="M261.75,-1194.4C274.78,-1194.37 356.84,-1193.95 386.39,-1188.55"/>
<polygon fill="black" stroke="black" points="387.47,-1191.88 396,-1185.6 385.41,-1185.19 387.47,-1191.88"/>
</a>
</g>
</g>
<!-- placeholder_cluster_populate_page_2 -->
<g id="node14" class="node">
<title>placeholder_cluster_populate_page_2</title>
<g id="a_node14"><a xlink:title=" ">
<ellipse fill="transparent" stroke="transparent" cx="107" cy="-789.1" rx="27" ry="18"/>
<text text-anchor="middle" x="107" y="-785.4" font-family="inherit" font-size="14.00">...</text>
</a>
</g>
</g>
<!-- pages_point_a&#45;&gt;placeholder_cluster_populate_page_2 -->
<g id="edge15" class="edge">
<title>pages_point_a&#45;&gt;placeholder_cluster_populate_page_2:n</title>
<g id="a_edge15"><a xlink:title=" ">
<path fill="none" stroke="black" stroke-width="1.5" stroke-dasharray="5,2" d="M258.3,-1194.44C241.68,-1194.82 108.29,-1197.5 96,-1185.6 43.62,-1134.86 82,-1095.03 82,-1022.1 82,-1022.1 82,-1022.1 82,-936.1 82,-894.44 94.92,-876.48 102.18,-848.15"/>
<polygon fill="black" stroke="black" stroke-width="1.5" points="105.66,-848.62 104.4,-838.1 98.83,-847.11 105.66,-848.62"/>
</a>
</g>
</g>
<!-- placeholder_cluster_populate_page_3 -->
<g id="node16" class="node">
<title>placeholder_cluster_populate_page_3</title>
<g id="a_node16"><a xlink:title=" ">
<ellipse fill="transparent" stroke="transparent" cx="177" cy="-1105.1" rx="27" ry="18"/>
<text text-anchor="middle" x="177" y="-1101.4" font-family="inherit" font-size="14.00">...</text>
</a>
</g>
</g>
<!-- pages_point_a&#45;&gt;placeholder_cluster_populate_page_3 -->
<g id="edge17" class="edge">
<title>pages_point_a&#45;&gt;placeholder_cluster_populate_page_3:n</title>
<g id="a_edge17"><a xlink:title=" ">
<path fill="none" stroke="black" stroke-width="1.5" stroke-dasharray="5,2" d="M258.49,-1194.38C253.26,-1194.24 235.63,-1193.2 224,-1185.6 210.36,-1176.68 199.1,-1170.14 191.02,-1162.06"/>
<polygon fill="black" stroke="black" stroke-width="1.5" points="193.56,-1159.63 184.52,-1154.1 188.14,-1164.06 193.56,-1159.63"/>
</a>
</g>
</g>
<!-- placeholder_cluster_populate_page_2&#45;&gt;pages_point_b -->
<g id="edge16" class="edge">
<title>placeholder_cluster_populate_page_2:s&#45;&gt;pages_point_b</title>
<g id="a_edge16"><a xlink:title=" ">
<path fill="none" stroke="black" stroke-width="1.5" stroke-dasharray="5,2" d="M107.96,-763.1C114.52,-740.29 153.17,-735.18 173.11,-734.08"/>
<polygon fill="black" stroke="black" stroke-width="1.5" points="173.48,-737.57 183.37,-733.78 173.27,-730.57 173.48,-737.57"/>
</a>
</g>
</g>
<!-- pages_point_b&#45;&gt;on_env -->
<g id="edge20" class="edge">
<title>pages_point_b&#45;&gt;on_env:n</title>
<g id="a_edge20"><a xlink:title=" ">
<path fill="none" stroke="black" d="M186.66,-731.87C205.47,-732.68 378.3,-739.01 403.85,-702.21"/>
<polygon fill="black" stroke="black" points="407.24,-703.09 407,-692.5 400.58,-700.93 407.24,-703.09"/>
</a>
</g>
</g>
<!-- pages_point_c -->
<g id="node18" class="node">
<title>pages_point_c</title>
<g id="a_node18"><a xlink:title=" ">
<ellipse fill="black" stroke="black" cx="185" cy="-590" rx="1.8" ry="1.8"/>
</a>
</g>
</g>
<!-- pages_point_b&#45;&gt;pages_point_c -->
<g id="edge21" class="edge">
<title>pages_point_b&#45;&gt;pages_point_c</title>
<g id="a_edge21"><a xlink:title=" ">
<path fill="none" stroke="black" d="M185,-730.9C185,-719.47 185,-602.74 185,-591.82"/>
</a>
</g>
</g>
<!-- placeholder_cluster_populate_page_3&#45;&gt;pages_point_b -->
<g id="edge18" class="edge">
<title>placeholder_cluster_populate_page_3:s&#45;&gt;pages_point_b</title>
<g id="a_edge18"><a xlink:title=" ">
<path fill="none" stroke="black" stroke-width="1.5" stroke-dasharray="5,2" d="M177.02,-1079.1C177.36,-1019.03 182,-1001.52 182,-938.1 182,-938.1 182,-938.1 182,-863.6 182,-819.65 183.74,-767.34 184.57,-744.91"/>
<polygon fill="black" stroke="black" stroke-width="1.5" points="188.08,-744.75 184.97,-734.62 181.08,-744.48 188.08,-744.75"/>
</a>
</g>
</g>
<!-- on_env&#45;&gt;context_inputs_point -->
<g id="edge29" class="edge">
<title>on_env:s&#45;&gt;context_inputs_point</title>
<g id="a_edge29"><a xlink:title=" ">
<path fill="none" stroke="black" d="M310,-654.5C310,-628.92 310,-597.55 310,-591.9"/>
</a>
</g>
</g>
<!-- get_template_t -->
<g id="node32" class="node">
<title>get_template_t</title>
<g id="a_node32"><a xlink:title=" ">
<ellipse fill="#77ff77" fill-opacity="0.533333" stroke="black" cx="691" cy="-590" rx="66.09" ry="18"/>
<text text-anchor="middle" x="691" y="-586.3" font-family="inherit" font-size="14.00">get_template</text>
</a>
</g>
</g>
<!-- on_env&#45;&gt;get_template_t -->
<g id="edge40" class="edge">
<title>on_env:s&#45;&gt;get_template_t</title>
<g id="a_edge40"><a xlink:title=" ">
<path fill="none" stroke="black" d="M310,-654.5C310,-633.38 402.3,-617.66 496.05,-607.15"/>
<polygon fill="black" stroke="black" points="496.44,-610.63 506,-606.05 495.68,-603.67 496.44,-610.63"/>
</a>
</g>
</g>
<!-- on_page_context -->
<g id="node19" class="node">
<title>on_page_context</title>
<g id="a_node19"><a xlink:title=" ">
<polygon fill="#ffffff" fill-opacity="0.333333" stroke="black" points="274.5,-404.5 274.5,-440.5 481.5,-440.5 481.5,-404.5 274.5,-404.5"/>
<text text-anchor="middle" x="307" y="-418.8" font-family="inherit" font-size="14.00">context</text>
<polyline fill="none" stroke="black" points="339.5,-404.5 339.5,-440.5 "/>
<text text-anchor="middle" x="363.5" y="-418.8" font-family="inherit" font-size="14.00">page</text>
<polyline fill="none" stroke="black" points="387.5,-404.5 387.5,-440.5 "/>
<text text-anchor="middle" x="415.5" y="-418.8" font-family="inherit" font-size="14.00">config</text>
<polyline fill="none" stroke="black" points="443.5,-404.5 443.5,-440.5 "/>
<text text-anchor="middle" x="462.5" y="-418.8" font-family="inherit" font-size="14.00">nav</text>
</a>
</g>
</g>
<!-- pages_point_c&#45;&gt;on_page_context -->
<g id="edge22" class="edge">
<title>pages_point_c&#45;&gt;on_page_context:n</title>
<g id="a_edge22"><a xlink:title=" ">
<path fill="none" stroke="black" stroke-width="1.5" stroke-dasharray="5,2" d="M184.88,-588.14C183.72,-579.72 175.52,-511.35 210,-480 220.12,-470.8 257.67,-475.05 271,-472 309.22,-463.24 354.08,-480.85 361.83,-451.6"/>
<polygon fill="black" stroke="black" stroke-width="1.5" points="365.33,-451.84 363,-441.5 358.37,-451.03 365.33,-451.84"/>
</a>
</g>
</g>
<!-- get_context -->
<g id="node21" class="node">
<title>get_context</title>
<g id="a_node21"><a xlink:title=" ">
<ellipse fill="#77ff77" fill-opacity="0.533333" stroke="black" cx="307" cy="-506.5" rx="61.19" ry="18"/>
<text text-anchor="middle" x="307" y="-502.8" font-family="inherit" font-size="14.00">get_context</text>
</a>
</g>
</g>
<!-- pages_point_c&#45;&gt;get_context -->
<!-- placeholder_cluster_build_page_2 -->
<g id="node26" class="node">
<title>placeholder_cluster_build_page_2</title>
<g id="a_node26"><a xlink:title=" ">
<ellipse fill="transparent" stroke="transparent" cx="65" cy="-506.5" rx="27" ry="18"/>
<text text-anchor="middle" x="65" y="-502.8" font-family="inherit" font-size="14.00">...</text>
</a>
</g>
</g>
<!-- pages_point_c&#45;&gt;placeholder_cluster_build_page_2 -->
<g id="edge31" class="edge">
<title>pages_point_c&#45;&gt;placeholder_cluster_build_page_2:n</title>
<g id="a_edge31"><a xlink:title=" ">
<path fill="none" stroke="black" stroke-width="1.5" stroke-dasharray="5,2" d="M183.3,-588.93C172.82,-588.46 116.31,-584.88 85.34,-562.08"/>
<polygon fill="black" stroke="black" stroke-width="1.5" points="87.56,-559.38 77.7,-555.5 82.99,-564.68 87.56,-559.38"/>
</a>
</g>
</g>
<!-- placeholder_cluster_build_page_3 -->
<g id="node27" class="node">
<title>placeholder_cluster_build_page_3</title>
<g id="a_node27"><a xlink:title=" ">
<ellipse fill="transparent" stroke="transparent" cx="51" cy="-422.5" rx="27" ry="18"/>
<text text-anchor="middle" x="51" y="-418.8" font-family="inherit" font-size="14.00">...</text>
</a>
</g>
</g>
<!-- pages_point_c&#45;&gt;placeholder_cluster_build_page_3 -->
<g id="edge32" class="edge">
<title>pages_point_c&#45;&gt;placeholder_cluster_build_page_3:n</title>
<g id="a_edge32"><a xlink:title=" ">
<path fill="none" stroke="black" stroke-width="1.5" stroke-dasharray="5,2" d="M183.38,-588.95C167.49,-588.45 39.66,-583.55 17,-556 -2.7,-532.05 3.7,-514.65 18.12,-480.94"/>
<polygon fill="black" stroke="black" stroke-width="1.5" points="21.44,-482.07 22.16,-471.5 15.01,-479.31 21.44,-482.07"/>
</a>
</g>
</g>
<!-- render -->
<g id="node22" class="node">
<title>render</title>
<g id="a_node22"><a xlink:title=" ">
<ellipse fill="#77ff77" fill-opacity="0.533333" stroke="black" cx="307" cy="-350" rx="38.19" ry="18"/>
<text text-anchor="middle" x="307" y="-346.3" font-family="inherit" font-size="14.00">render</text>
</a>
</g>
</g>
<!-- on_page_context&#45;&gt;render -->
<g id="edge24" class="edge">
<title>on_page_context:s&#45;&gt;render</title>
<g id="a_edge24"><a xlink:title=" ">
<path fill="none" stroke="black" d="M307,-403.5C307,-395.26 307,-386.3 307,-378.14"/>
<polygon fill="black" stroke="black" points="310.5,-378.02 307,-368.02 303.5,-378.02 310.5,-378.02"/>
</a>
</g>
</g>
<!-- on_post_page -->
<g id="node20" class="node">
<title>on_post_page</title>
<g id="a_node20"><a xlink:title=" ">
<polygon fill="#ffffff" fill-opacity="0.333333" stroke="black" points="296,-256.5 296,-292.5 462,-292.5 462,-256.5 296,-256.5"/>
<text text-anchor="middle" x="327" y="-270.8" font-family="inherit" font-size="14.00">output</text>
<polyline fill="none" stroke="black" points="358,-256.5 358,-292.5 "/>
<text text-anchor="middle" x="382" y="-270.8" font-family="inherit" font-size="14.00">page</text>
<polyline fill="none" stroke="black" points="406,-256.5 406,-292.5 "/>
<text text-anchor="middle" x="434" y="-270.8" font-family="inherit" font-size="14.00">config</text>
</a>
</g>
</g>
<!-- write_file -->
<g id="node24" class="node">
<title>write_file</title>
<g id="a_node24"><a xlink:title=" ">
<ellipse fill="#77ff77" fill-opacity="0.533333" stroke="black" cx="383" cy="-202" rx="50.09" ry="18"/>
<text text-anchor="middle" x="383" y="-198.3" font-family="inherit" font-size="14.00">write_file</text>
</a>
</g>
</g>
<!-- on_post_page&#45;&gt;write_file -->
<g id="edge27" class="edge">
<title>on_post_page:s&#45;&gt;write_file</title>
<g id="a_edge27"><a xlink:title=" ">
<path fill="none" stroke="black" d="M327,-255.5C327,-242.12 335.61,-231.16 346.09,-222.78"/>
<polygon fill="black" stroke="black" points="348.24,-225.54 354.34,-216.87 344.17,-219.84 348.24,-225.54"/>
</a>
</g>
</g>
<!-- get_context&#45;&gt;on_page_context -->
<g id="edge23" class="edge">
<title>get_context&#45;&gt;on_page_context:n</title>
<g id="a_edge23"><a xlink:title=" ">
<path fill="none" stroke="black" d="M307,-488.39C307,-478.22 307,-464.8 307,-451.78"/>
<polygon fill="black" stroke="black" points="310.5,-451.5 307,-441.5 303.5,-451.5 310.5,-451.5"/>
</a>
</g>
</g>
<!-- render&#45;&gt;on_post_page -->
<g id="edge26" class="edge">
<title>render&#45;&gt;on_post_page:n</title>
<g id="a_edge26"><a xlink:title=" ">
<path fill="none" stroke="black" d="M316.53,-332.07C320.39,-324.03 324.35,-313.96 326.09,-303.72"/>
<polygon fill="black" stroke="black" points="329.6,-303.77 327,-293.5 322.63,-303.15 329.6,-303.77"/>
</a>
</g>
</g>
<!-- get_template -->
<g id="node23" class="node">
<title>get_template</title>
<g id="a_node23"><a xlink:title=" ">
<ellipse fill="#77ff77" fill-opacity="0.533333" stroke="black" cx="190" cy="-422.5" rx="66.09" ry="18"/>
<text text-anchor="middle" x="190" y="-418.8" font-family="inherit" font-size="14.00">get_template</text>
</a>
</g>
</g>
<!-- get_template&#45;&gt;render -->
<g id="edge25" class="edge">
<title>get_template&#45;&gt;render</title>
<g id="a_edge25"><a xlink:title=" ">
<path fill="none" stroke="black" d="M215.97,-405.85C233.55,-395.26 256.89,-381.19 275.54,-369.96"/>
<polygon fill="black" stroke="black" points="277.51,-372.86 284.27,-364.7 273.9,-366.86 277.51,-372.86"/>
</a>
</g>
</g>
<!-- on_post_build -->
<g id="node38" class="node">
<title>on_post_build</title>
<g id="a_node38"><a xlink:title=" ">
<polygon fill="#ffffff" fill-opacity="0.333333" stroke="black" points="448,-100.5 448,-136.5 504,-136.5 504,-100.5 448,-100.5"/>
<text text-anchor="middle" x="476" y="-114.8" font-family="inherit" font-size="14.00">config</text>
</a>
</g>
</g>
<!-- write_file&#45;&gt;on_post_build -->
<!-- context_inputs_point&#45;&gt;get_context -->
<g id="edge30" class="edge">
<title>context_inputs_point&#45;&gt;get_context</title>
<g id="a_edge30"><a xlink:title=" ">
<path fill="none" stroke="black" d="M309.97,-588.08C309.86,-585.29 309.54,-576.41 309.14,-565.5"/>
<polygon fill="black" stroke="black" points="312.63,-565.36 308.77,-555.5 305.64,-565.62 312.63,-565.36"/>
</a>
</g>
</g>
<!-- placeholder_cluster_build_page_2&#45;&gt;placeholder_cluster_build_page_3 -->
<!-- templates_point -->
<g id="node28" class="node">
<title>templates_point</title>
<g id="a_node28"><a xlink:title=" ">
<ellipse fill="black" stroke="black" cx="897" cy="-673.5" rx="1.8" ry="1.8"/>
</a>
</g>
</g>
<!-- on_pre_template -->
<g id="node29" class="node">
<title>on_pre_template</title>
<g id="a_node29"><a xlink:title=" ">
<polygon fill="#ffffff" fill-opacity="0.333333" stroke="black" points="654,-488.5 654,-524.5 900,-524.5 900,-488.5 654,-488.5"/>
<text text-anchor="middle" x="691" y="-502.8" font-family="inherit" font-size="14.00">template</text>
<polyline fill="none" stroke="black" points="728,-488.5 728,-524.5 "/>
<text text-anchor="middle" x="786" y="-502.8" font-family="inherit" font-size="14.00">template_name</text>
<polyline fill="none" stroke="black" points="844,-488.5 844,-524.5 "/>
<text text-anchor="middle" x="872" y="-502.8" font-family="inherit" font-size="14.00">config</text>
</a>
</g>
</g>
<!-- templates_point&#45;&gt;on_pre_template -->
<g id="edge33" class="edge">
<title>templates_point&#45;&gt;on_pre_template:n</title>
<g id="a_edge33"><a xlink:title=" ">
<path fill="none" stroke="black" stroke-width="1.5" stroke-dasharray="5,2" d="M896.29,-671.63C888.06,-661.46 810.48,-565.53 790.62,-534.51"/>
<polygon fill="black" stroke="black" stroke-width="1.5" points="793.67,-532.81 786,-525.5 787.44,-536 793.67,-532.81"/>
</a>
</g>
</g>
<!-- templates_point&#45;&gt;get_template_t -->
<!-- placeholder_cluster_build_template_2 -->
<g id="node36" class="node">
<title>placeholder_cluster_build_template_2</title>
<g id="a_node36"><a xlink:title=" ">
<ellipse fill="transparent" stroke="transparent" cx="989" cy="-590" rx="27" ry="18"/>
<text text-anchor="middle" x="989" y="-586.3" font-family="inherit" font-size="14.00">...</text>
</a>
</g>
</g>
<!-- templates_point&#45;&gt;placeholder_cluster_build_template_2 -->
<g id="edge41" class="edge">
<title>templates_point&#45;&gt;placeholder_cluster_build_template_2:n</title>
<g id="a_edge41"><a xlink:title=" ">
<path fill="none" stroke="black" stroke-width="1.5" stroke-dasharray="5,2" d="M898.6,-672.24C906.7,-670.83 943.84,-663.62 967.92,-645.55"/>
<polygon fill="black" stroke="black" stroke-width="1.5" points="970.24,-648.18 975.53,-639 965.67,-642.87 970.24,-648.18"/>
</a>
</g>
</g>
<!-- placeholder_cluster_build_template_3 -->
<g id="node37" class="node">
<title>placeholder_cluster_build_template_3</title>
<g id="a_node37"><a xlink:title=" ">
<ellipse fill="transparent" stroke="transparent" cx="981" cy="-506.5" rx="27" ry="18"/>
<text text-anchor="middle" x="981" y="-502.8" font-family="inherit" font-size="14.00">...</text>
</a>
</g>
</g>
<!-- templates_point&#45;&gt;placeholder_cluster_build_template_3 -->
<g id="edge42" class="edge">
<title>templates_point&#45;&gt;placeholder_cluster_build_template_3:n</title>
<g id="a_edge42"><a xlink:title=" ">
<path fill="none" stroke="black" stroke-width="1.5" stroke-dasharray="5,2" d="M897.42,-671.38C900.65,-662.69 922.39,-605.5 949,-564 949.21,-563.68 949.42,-563.36 949.63,-563.05"/>
<polygon fill="black" stroke="black" stroke-width="1.5" points="952.3,-565.31 956.3,-555.5 947.06,-560.67 952.3,-565.31"/>
</a>
</g>
</g>
<!-- on_template_context -->
<g id="node30" class="node">
<title>on_template_context</title>
<g id="a_node30"><a xlink:title=" ">
<polygon fill="#ffffff" fill-opacity="0.333333" stroke="black" points="540.5,-404.5 540.5,-440.5 777.5,-440.5 777.5,-404.5 540.5,-404.5"/>
<text text-anchor="middle" x="573" y="-418.8" font-family="inherit" font-size="14.00">context</text>
<polyline fill="none" stroke="black" points="605.5,-404.5 605.5,-440.5 "/>
<text text-anchor="middle" x="663.5" y="-418.8" font-family="inherit" font-size="14.00">template_name</text>
<polyline fill="none" stroke="black" points="721.5,-404.5 721.5,-440.5 "/>
<text text-anchor="middle" x="749.5" y="-418.8" font-family="inherit" font-size="14.00">config</text>
</a>
</g>
</g>
<!-- on_pre_template&#45;&gt;on_template_context -->
<!-- render_t -->
<g id="node34" class="node">
<title>render_t</title>
<g id="a_node34"><a xlink:title=" ">
<ellipse fill="#77ff77" fill-opacity="0.533333" stroke="black" cx="573" cy="-350" rx="38.19" ry="18"/>
<text text-anchor="middle" x="573" y="-346.3" font-family="inherit" font-size="14.00">render</text>
</a>
</g>
</g>
<!-- on_pre_template&#45;&gt;render_t -->
<g id="edge36" class="edge">
<title>on_pre_template:s&#45;&gt;render_t</title>
<g id="a_edge36"><a xlink:title=" ">
<path fill="none" stroke="black" d="M691,-487.5C691,-465.23 775.52,-488.92 790,-472 811.96,-446.33 811.32,-422.2 790,-396 769.14,-370.37 678.54,-358.87 621.21,-354.08"/>
<polygon fill="black" stroke="black" points="621.16,-350.57 610.91,-353.26 620.6,-357.55 621.16,-350.57"/>
</a>
</g>
</g>
<!-- on_template_context&#45;&gt;render_t -->
<g id="edge37" class="edge">
<title>on_template_context:s&#45;&gt;render_t</title>
<g id="a_edge37"><a xlink:title=" ">
<path fill="none" stroke="black" d="M573,-403.5C573,-395.26 573,-386.3 573,-378.14"/>
<polygon fill="black" stroke="black" points="576.5,-378.02 573,-368.02 569.5,-378.02 576.5,-378.02"/>
</a>
</g>
</g>
<!-- on_post_template -->
<g id="node31" class="node">
<title>on_post_template</title>
<g id="a_node31"><a xlink:title=" ">
<polygon fill="#ffffff" fill-opacity="0.333333" stroke="black" points="541,-256.5 541,-292.5 775,-292.5 775,-256.5 541,-256.5"/>
<text text-anchor="middle" x="572" y="-270.8" font-family="inherit" font-size="14.00">output</text>
<polyline fill="none" stroke="black" points="603,-256.5 603,-292.5 "/>
<text text-anchor="middle" x="661" y="-270.8" font-family="inherit" font-size="14.00">template_name</text>
<polyline fill="none" stroke="black" points="719,-256.5 719,-292.5 "/>
<text text-anchor="middle" x="747" y="-270.8" font-family="inherit" font-size="14.00">config</text>
</a>
</g>
</g>
<!-- write_file_t -->
<g id="node35" class="node">
<title>write_file_t</title>
<g id="a_node35"><a xlink:title=" ">
<ellipse fill="#77ff77" fill-opacity="0.533333" stroke="black" cx="569" cy="-202" rx="50.09" ry="18"/>
<text text-anchor="middle" x="569" y="-198.3" font-family="inherit" font-size="14.00">write_file</text>
</a>
</g>
</g>
<!-- on_post_template&#45;&gt;write_file_t -->
<g id="edge39" class="edge">
<title>on_post_template:s&#45;&gt;write_file_t</title>
<g id="a_edge39"><a xlink:title=" ">
<path fill="none" stroke="black" d="M572,-255.5C572,-247.25 571.63,-238.28 571.14,-230.13"/>
<polygon fill="black" stroke="black" points="574.63,-229.75 570.46,-220.01 567.64,-230.22 574.63,-229.75"/>
</a>
</g>
</g>
<!-- get_template_t&#45;&gt;on_pre_template -->
<g id="edge34" class="edge">
<title>get_template_t&#45;&gt;on_pre_template:n</title>
<g id="a_edge34"><a xlink:title=" ">
<path fill="none" stroke="black" d="M691,-571.75C691,-561.67 691,-548.45 691,-535.63"/>
<polygon fill="black" stroke="black" points="694.5,-535.5 691,-525.5 687.5,-535.5 694.5,-535.5"/>
</a>
</g>
</g>
<!-- get_context_t -->
<g id="node33" class="node">
<title>get_context_t</title>
<g id="a_node33"><a xlink:title=" ">
<ellipse fill="#77ff77" fill-opacity="0.533333" stroke="black" cx="575" cy="-506.5" rx="61.19" ry="18"/>
<text text-anchor="middle" x="575" y="-502.8" font-family="inherit" font-size="14.00">get_context</text>
</a>
</g>
</g>
<!-- get_context_t&#45;&gt;on_template_context -->
<g id="edge35" class="edge">
<title>get_context_t&#45;&gt;on_template_context:n</title>
<g id="a_edge35"><a xlink:title=" ">
<path fill="none" stroke="black" d="M574.17,-488.39C573.74,-478.22 573.26,-464.8 573.08,-451.78"/>
<polygon fill="black" stroke="black" points="576.57,-451.47 573,-441.5 569.57,-451.53 576.57,-451.47"/>
</a>
</g>
</g>
<!-- render_t&#45;&gt;on_post_template -->
<g id="edge38" class="edge">
<title>render_t&#45;&gt;on_post_template:n</title>
<g id="a_edge38"><a xlink:title=" ">
<path fill="none" stroke="black" d="M572.54,-332C572.34,-323.85 572.14,-313.7 572.05,-303.73"/>
<polygon fill="black" stroke="black" points="575.55,-303.48 572,-293.5 568.55,-303.52 575.55,-303.48"/>
</a>
</g>
</g>
<!-- write_file_t&#45;&gt;on_post_build -->
<!-- placeholder_cluster_build_template_2&#45;&gt;placeholder_cluster_build_template_3 -->
<!-- on_serve -->
<g id="node39" class="node">
<title>on_serve</title>
<g id="a_node39"><a xlink:title=" ">
<polygon fill="#ffffff" fill-opacity="0.333333" stroke="black" points="420,-16.5 420,-52.5 532,-52.5 532,-16.5 420,-16.5"/>
<text text-anchor="middle" x="448" y="-30.8" font-family="inherit" font-size="14.00">server</text>
<polyline fill="none" stroke="black" points="476,-16.5 476,-52.5 "/>
<text text-anchor="middle" x="504" y="-30.8" font-family="inherit" font-size="14.00">config</text>
</a>
</g>
</g>
<!-- on_post_build&#45;&gt;on_serve -->
</g>
</svg>
